<?xml version="1.0" encoding="UTF-8"?><svg id="Layer_1" xmlns="http://www.w3.org/2000/svg" viewBox="0 0 95 95"><defs><style>.cls-1{fill:#000;stroke-width:0px;}</style></defs><path class="cls-1" d="M94.03,89.36l-18.49-18.49c1.51-1.75,2.88-3.63,4.09-5.61,5.59-9.2,7.52-20.09,5.44-30.63-1.22-6.3-3.91-12.35-7.79-17.48-1.2-1.6-2.54-3.14-3.99-4.59-16.75-16.75-43.99-16.75-60.74,0-16.75,16.75-16.75,43.99,0,60.74,1.46,1.46,3,2.8,4.59,3.99,5.12,3.85,11.16,6.55,17.48,7.79,10.61,2.07,21.47.14,30.57-5.43,1.99-1.19,3.89-2.56,5.68-4.1l18.48,18.48c1.29,1.29,3.38,1.29,4.67,0,1.29-1.29,1.29-3.38,0-4.67ZM61.78,74c-7.71,4.72-16.91,6.35-25.89,4.6-5.42-1.07-10.39-3.28-14.78-6.59-1.34-1-2.64-2.14-3.88-3.38-14.17-14.17-14.17-37.23,0-51.4,14.17-14.17,37.23-14.17,51.4,0,1.23,1.23,2.36,2.54,3.38,3.89,3.28,4.34,5.55,9.44,6.58,14.78,1.76,8.94.13,18.15-4.6,25.92-3.06,4.99-7.33,9.24-12.22,12.18Z"/></svg>